<?xml version="1.0" encoding="utf-8"?>
<!-- Generator: Adobe Illustrator 15.1.0, SVG Export Plug-In . SVG Version: 6.00 Build 0)  -->
<!DOCTYPE svg PUBLIC "-//W3C//DTD SVG 1.1//EN" "http://www.w3.org/Graphics/SVG/1.1/DTD/svg11.dtd">
<svg version="1.1" id="Camada_1" xmlns="http://www.w3.org/2000/svg" xmlns:xlink="http://www.w3.org/1999/xlink" x="0px" y="0px"
	 width="345.229px" height="257.772px" viewBox="0 0 345.229 257.772" enable-background="new 0 0 345.229 257.772"
	 xml:space="preserve">
<path stroke="#D4D4D4" d="M34.602,117.18v8.771c0,0-63.313,150.666,214.688,79.666c2-1,1.334,22.167,1.334,22.167
	s-50,32.5-145.667,29.833c-4.333-0.333-78,7-101.667-56.333c-0.333-1.334-16.666-47,26.667-81.333
	C30.623,119.951,34.602,117.18,34.602,117.18z"/>
<path stroke="#DCDCDC" d="M300.562,112.575c63-113.667-191-68.333-191-68.333s-0.667-7,0-8
	C180.896-7.425,244.895,0.575,246.895,0.575c107.667,1.667,98.334,69,98,70.667c-3.667,50.999-45.666,64-45.666,64v-19.334
	L300.562,112.575z"/>
<path stroke="#DCDCDC" d="M66.164,117.18h17.125v61.875c0,0-16,0.25-17.125-15.375C66.164,163.305,66.164,117.18,66.164,117.18z"/>
<rect x="65.602" y="81.992" stroke="#DCDCDC" width="18.25" height="17.938"/>
<path stroke="#DCDCDC" d="M99.452,178.927h16.688l0.063-48.563c0,0,14.625-1.313,18.688,5.688
	c0.125,0.938-0.625,42.875-0.625,42.875h17.013l-1.076-45.188c0,0,2.125-16-16-16.375c-0.688-0.125-34.75,0-34.75,0V178.927z"/>
<path fill="#FF0000" stroke="#DCDCDC" d="M283.289-78.289"/>
<path fill="#FFFFFF" stroke="#DCDCDC" d="M284.039-95.956"/>
<path stroke="#DCDCDC" d="M273.618,158.151c0,13.396-13.134,24.258-29.332,24.258l0,0c-16.201,0-29.332-10.861-29.332-24.258
	v-45.819c0-13.397,13.131-24.257,29.332-24.257l0,0c16.198,0,29.332,10.859,29.332,24.257V158.151z"/>
<path fill="#FFFFFF" stroke="#DCDCDC" d="M272.039,137.227c0,1.096-0.889,1.984-1.984,1.984h-52.031
	c-1.096,0-1.984-0.889-1.984-1.984l0,0c0-1.096,0.889-1.984,1.984-1.984h52.031C271.15,135.242,272.039,136.131,272.039,137.227
	L272.039,137.227z"/>
<path fill="#FFFFFF" stroke="#DCDCDC" d="M247.289,131.969c0,1.808-1.466,3.273-3.274,3.273l0,0c-1.808,0-3.274-1.466-3.274-3.273
	V91.531c0-1.808,1.466-3.273,3.274-3.273l0,0c1.808,0,3.274,1.466,3.274,3.273V131.969z"/>
<path stroke="#DCDCDC" d="M166.514,178.92l16.417-0.092l-0.098-17.084l11.583-0.064l-0.073-12.834l-12.001-0.182l-0.178-31.416
	c0,0-0.271-3.582,11.981-3.402c0.499-0.086-0.079-13.916-0.079-13.916l-13.884,0.912c0,0-13.932,2.163-14.022,15.747
	C166.328,116.754,166.514,178.92,166.514,178.92z"/>
</svg>
